<svg width="33" height="32" viewBox="0 0 33 32" fill="none" xmlns="http://www.w3.org/2000/svg">
<path d="M15.4449 31.2677C14.2539 32.8112 11.7922 31.7203 12.1356 29.8012L15.3198 12.0074H26.5149C28.0621 12.0074 28.9352 13.7839 27.9901 15.0089L15.4449 31.2677Z" fill="#258D15"/>
<path d="M26.5242 12.0078L15.4179 12.0078L17.0064 19.7803C17.0318 19.9042 17.1408 19.9932 17.2672 19.9932H18.0693C18.1851 19.9932 18.2978 19.9554 18.3902 19.8856L26.8986 13.4578L27.5323 13.0146C27.716 12.8862 27.9551 12.8681 28.156 12.9675L28.11 12.8929C27.7707 12.3428 27.1705 12.0078 26.5242 12.0078Z" fill="#30C730"/>
<path d="M17.9367 0.732341C19.1277 -0.811182 21.5894 0.279685 21.246 2.19878L18.0618 19.9926H6.86669C5.31952 19.9926 4.44637 18.2161 5.39152 16.9911L17.9367 0.732341Z" fill="#6CE573"/>
</svg>
